<?xml version="1.0" encoding="UTF-8" standalone="no"?>
<svg
   xmlns:dc="http://purl.org/dc/elements/1.1/"
   xmlns:cc="http://creativecommons.org/ns#"
   xmlns:rdf="http://www.w3.org/1999/02/22-rdf-syntax-ns#"
   xmlns:svg="http://www.w3.org/2000/svg"
   xmlns="http://www.w3.org/2000/svg"
   xmlns:sodipodi="http://sodipodi.sourceforge.net/DTD/sodipodi-0.dtd"
   xmlns:inkscape="http://www.inkscape.org/namespaces/inkscape"
   inkscape:version="1.0beta2 (2b71d25, 2019-12-03)"
   height="8"
   width="80"
   sodipodi:docname="squiggly2.svg"
   id="svg58"
   xml:space="preserve"
   viewBox="0 0 80 8"
   y="0px"
   x="0px"
   version="1.1"><metadata
     id="metadata64"><rdf:RDF><cc:Work
         rdf:about=""><dc:format>image/svg+xml</dc:format><dc:type
           rdf:resource="http://purl.org/dc/dcmitype/StillImage" /><dc:title></dc:title></cc:Work></rdf:RDF></metadata><defs
     id="defs62" /><sodipodi:namedview
     inkscape:current-layer="svg58"
     inkscape:window-maximized="0"
     inkscape:window-y="58"
     inkscape:window-x="1556"
     inkscape:cy="62.164992"
     inkscape:cx="40.275266"
     inkscape:zoom="5.97"
     showgrid="false"
     id="namedview60"
     inkscape:window-height="954"
     inkscape:window-width="1403"
     inkscape:pageshadow="2"
     inkscape:pageopacity="0"
     guidetolerance="10"
     gridtolerance="10"
     objecttolerance="10"
     borderopacity="1"
     inkscape:document-rotation="0"
     bordercolor="#666666"
     pagecolor="#ffffff" /><path
     inkscape:connector-curvature="0"
     id="path56"
     d="M 79,0 C 76.897461,0 75.829102,1.3134766 74.970703,2.3691406 74.123047,3.4106445 73.589844,4 72.492188,4 71.394531,4 70.862305,3.4106445 70.014649,2.3691406 69.15625,1.3134766 68.087891,0 65.985352,0 63.883789,0 62.81543,1.3139648 61.957031,2.3696289 61.111328,3.4106445 60.578125,4 59.482422,4 58.387695,4 57.855469,3.4106445 57.009766,2.3696289 56.152344,1.3139648 55.084961,0 52.984375,0 50.883789,0 49.816406,1.3134766 48.958008,2.3691406 48.112305,3.4106445 47.580078,4 46.483399,4 45.388672,4 44.856445,3.4111328 44.010742,2.3696289 43.15332,1.3139648 42.085938,0 39.984375,0 37.883789,0 36.816406,1.3134766 35.958985,2.3691406 35.113281,3.4106445 34.581055,4 33.485352,4 32.390625,4 31.858399,3.4111328 31.012696,2.3696289 30.155274,1.3139648 29.087891,0 26.986328,0 24.885742,0 23.819336,1.3139648 22.961914,2.3696289 22.116211,3.4106445 21.584961,4 20.490235,4 19.396485,4 18.864258,3.4106445 18.019531,2.3696289 17.163086,1.3139648 16.09668,0 13.99707,0 11.895508,0 10.828125,1.3139648 9.9707029,2.3696289 9.125,3.4111328 8.5927734,4 7.4980469,4 6.4033204,4 5.8710938,3.4106445 5.0253907,2.3696289 4.1679688,1.3139648 3.1005859,0 0.99999998,0 0.4472656,0 0,0.4477539 0,1 0,1.5522461 0.4472656,2 0.99999998,2 2.0947266,2 2.6269531,2.5893555 3.4726562,3.6303711 4.3300781,4.6860352 5.3974609,6 7.4980469,6 9.5986329,6 10.666016,4.6865234 11.523438,3.6308594 12.369141,2.5893555 12.901367,2 13.99707,2 c 1.09375,0 1.625,0.5888672 2.469727,1.6298828 C 17.323242,4.6860352 18.390625,6 20.490235,6 22.59082,6 23.657227,4.6860352 24.514649,3.6303711 25.360352,2.5893555 25.891602,2 26.986328,2 28.082031,2 28.614258,2.5893555 29.459961,3.6308594 30.317383,4.6865234 31.384766,6 33.485352,6 35.586914,6 36.654297,4.6860352 37.511719,3.6303711 38.357422,2.5888672 38.889649,2 39.984375,2 41.080078,2 41.612305,2.5893555 42.458008,3.6308594 43.31543,4.6865234 44.382813,6 46.483399,6 48.584961,6 49.652344,4.6860352 50.510742,3.6303711 51.356445,2.5893555 51.888672,2 52.984375,2 54.079102,2 54.611328,2.5893555 55.457031,3.6303711 56.314453,4.6860352 57.381836,6 59.482422,6 61.583985,6 62.651367,4.6865234 63.509766,3.6308594 64.356445,2.5893555 64.888672,2 65.985352,2 67.083008,2 67.616211,2.5893555 68.463867,3.6313477 69.322266,4.6865234 70.390625,6 72.492188,6 74.594727,6 75.663086,4.6865234 76.521485,3.6308594 77.369141,2.5893555 77.902344,2 79,2 79.552735,2 80,1.5522461 80,1 80,0.4477539 79.552735,0 79,0 Z" /><rect
     y="26.968174"
     x="6.8676715"
     height="10.050251"
     width="55.108879"
     id="rect911"
     style="fill:none" /><rect
     y="46.231155"
     x="7.8726969"
     height="7.8726969"
     width="84.757118"
     id="rect913"
     style="fill:none;stroke-width:1.18529" /></svg>
